<svg xmlns="http://www.w3.org/2000/svg" xmlns:xlink="http://www.w3.org/1999/xlink" viewBox="0 0 452.17 486.57"><defs><style>.cls-1{fill:none;}.cls-2{clip-path:url(#clip-path);}</style><clipPath id="clip-path" transform="translate(0 0)"><rect class="cls-1" width="452.17" height="486.57"/></clipPath></defs><title>basket</title><g id="Слой_2" data-name="Слой 2"><g id="Слой_1-2" data-name="Слой 1"><g class="cls-2"><path d="M128.87,320.37H397a55.31,55.31,0,0,0,55.2-55.2v-114a1.27,1.27,0,0,0-.1-.6c0-.2-.1-.5-.1-.7s-.1-.4-.1-.6a6.37,6.37,0,0,1-.2-.7c-.1-.2-.1-.4-.2-.6s-.1-.4-.2-.6a4.87,4.87,0,0,1-.3-.7,2.19,2.19,0,0,0-.3-.5l-.3-.6c-.1-.2-.2-.3-.3-.5s-.3-.4-.4-.6a1.76,1.76,0,0,0-.4-.5c-.1-.2-.3-.3-.4-.5s-.3-.3-.4-.5-.3-.3-.4-.4l-.5-.5c-.2-.1-.3-.3-.5-.4s-.4-.3-.6-.4-.3-.2-.5-.3a2.11,2.11,0,0,1-.6-.4l-.6-.3-.6-.3-.6-.3c-.2-.1-.4-.1-.6-.2a1.85,1.85,0,0,0-.7-.2,4.33,4.33,0,0,1-.5-.1,2.2,2.2,0,0,0-.8-.1c-.1,0-.2-.1-.4-.1l-339.8-46.9V44.67a6.15,6.15,0,0,0-.1-1.4.76.76,0,0,0-.1-.4c0-.3-.1-.6-.1-.9s-.1-.5-.2-.8-.1-.3-.1-.5l-.3-.9c0-.1-.1-.3-.1-.4a3,3,0,0,0-.4-.8c-.1-.1-.1-.3-.2-.4a2.09,2.09,0,0,0-.4-.6c-.1-.2-.2-.3-.3-.5s-.2-.3-.3-.5-.3-.4-.4-.6l-.3-.3-.6-.6-.3-.3a4.35,4.35,0,0,0-.7-.6c-.1-.1-.3-.2-.4-.3s-.4-.3-.6-.5a9.22,9.22,0,0,0-.8-.5c-.1-.1-.2-.1-.3-.2-.4-.2-.9-.4-1.3-.6l-73.7-31A13.51,13.51,0,0,0,8.27,26l65.4,27.6v295.8a55.26,55.26,0,0,0,48.1,54.7,54.48,54.48,0,1,0,101.2,28,53.47,53.47,0,0,0-7.5-27.5h121.4a53.75,53.75,0,0,0-7.5,27.5,54.5,54.5,0,1,0,54.5-54.5h-255a28.23,28.23,0,0,1-28.2-28.2v-36.6a55.82,55.82,0,0,0,28.2,7.6M196.07,432a27.5,27.5,0,1,1-27.5-27.5,27.55,27.55,0,0,1,27.5,27.5m215.4,0a27.5,27.5,0,1,1-27.5-27.5,27.55,27.55,0,0,1,27.5,27.5M397,293.37H128.87a28.23,28.23,0,0,1-28.2-28.2V119.27L425.17,164v101.1a28.25,28.25,0,0,1-28.2,28.3" transform="translate(0 0)"/></g></g></g></svg>